HIERARCHY
ROOT Hips
{
  OFFSET 0 0 0
  CHANNELS 6 Xposition Yposition Zposition Zrotation Yrotation Xrotation
  JOINT LeftThigh
  {
    OFFSET 8.409438 0 -5.917753
    CHANNELS 3 Zrotation Yrotation Xrotation
    JOINT LeftLeg
    {
      OFFSET 0 0 -42.358652
      CHANNELS 3 Zrotation Yrotation Xrotation
      JOINT LeftFoot
      {
        OFFSET 0 0 -39.357303
        CHANNELS 3 Zrotation Yrotation Xrotation
      }
    }
  }
  JOINT RightThigh
  {
    OFFSET -8.409438 0 -5.917753
    CHANNELS 3 Zrotation Yrotation Xrotation
    JOINT RightLeg
    {
      OFFSET 0 0 -42.358652
      CHANNELS 3 Zrotation Yrotation Xrotation
      JOINT RightFoot
      {
        OFFSET 0 0 -39.357303
        CHANNELS 3 Zrotation Yrotation Xrotation
      }
    }
  }
  JOINT SpineLow
  {
    OFFSET 0 0 4.719101
    CHANNELS 3 Zrotation Yrotation Xrotation
    JOINT SpineMid
    {
      OFFSET 0 0 12.899191
      CHANNELS 3 Zrotation Yrotation Xrotation
      JOINT Chest
      {
        OFFSET 0 0 12.899191
        CHANNELS 3 Zrotation Yrotation Xrotation
        JOINT LeftShoulder
        {
          OFFSET 7.550562 1.41573 9.438202
          CHANNELS 3 Zrotation Yrotation Xrotation
          JOINT LeftArm
          {
            OFFSET 9.155056 0 4.247191
            CHANNELS 3 Zrotation Yrotation Xrotation
            JOINT LeftForearm
            {
              OFFSET 0 0 25.771955
              CHANNELS 3 Zrotation Yrotation Xrotation
              JOINT LeftHand
              {
                OFFSET 0 0 25.197169
                CHANNELS 3 Zrotation Yrotation Xrotation
              }
            }
          }
        }
        JOINT RightShoulder
        {
          OFFSET -7.550562 1.41573 9.438202
          CHANNELS 3 Zrotation Yrotation Xrotation
          JOINT RightArm
          {
            OFFSET -9.155056 0 4.247191
            CHANNELS 3 Zrotation Yrotation Xrotation
            JOINT RightForearm
            {
              OFFSET 0 0 -25.771955
              CHANNELS 3 Zrotation Yrotation Xrotation
              JOINT RightHand
              {
                OFFSET 0 0 -25.197169
                CHANNELS 3 Zrotation Yrotation Xrotation
              }
            }
          }
        }
        JOINT Neck
        {
          OFFSET 0 0 15.101124
          CHANNELS 3 Zrotation Yrotation Xrotation
          JOINT Head
          {
            OFFSET 0 0 11.325843
            CHANNELS 3 Zrotation Yrotation Xrotation
            End Site
            {
              OFFSET 0 0 14.157303
            }
          }
        }
      }
    }
  }
}
MOTION
Frames: 16
Frame Time: 0.0
0.0  89.887642  0.0  1.460972  36.409079  -92.467075  -8.167329  -9.300223  -9.214815  -16.210784  8.155413  26.754054  0.943015  1.066186  1.862919  -22.53021  13.377223  6.378095  -14.805507  6.512129  10.80041  2.313955  0.923748  0.298994  1.515779  -0.80037  -0.523543  4.161698  -2.15381  -1.481053  4.161698  -2.153809  -1.481053  25.599973  10.785584  23.047285  148.136596  8.527403  175.40794  -23.606543  52.140011  92.897766  57.569736  -5.515961  20.548829  20.823635  8.99201  9.43303  -98.813165  68.666846  -172.010634  -23.960009  11.201075  -114.845979  78.464541  15.003586  14.638025  -20.281359  6.846199  10.049853  -15.310643  4.809174  7.766755  
0.0  89.887642  0.0  1.387755  36.490835  -92.368852  -8.136033  -9.454998  -9.238172  -16.549831  8.319103  26.644437  0.974558  1.063268  1.882364  -22.784128  13.343811  6.109219  -14.91188  6.445628  10.970223  2.509325  1.008182  0.376641  1.486215  -0.795836  -0.517223  4.080552  -2.14249  -1.462544  4.080552  -2.142491  -1.462543  25.398898  10.842888  22.939487  148.090137  8.570737  175.437766  -23.777984  52.167061  92.840093  57.672438  -5.257119  20.44291  20.724236  8.981833  9.295621  -99.40425  68.699083  -172.370566  -23.883844  11.209526  -114.831794  78.465341  15.041797  14.750315  -20.300167  6.782305  9.898236  -15.322176  4.765866  7.651276  
0.0  89.887642  0.0  1.283882  36.414279  -92.33123  -8.261617  -9.516688  -9.340559  -16.624232  8.351347  26.660694  1.036559  1.078201  1.958813  -22.75096  13.293349  5.921299  -14.892796  6.423417  11.222534  2.578996  1.046211  0.432616  1.451484  -0.808746  -0.504629  3.985501  -2.179309  -1.427799  3.985501  -2.179309  -1.427799  25.464196  10.936634  22.867269  147.931596  8.609238  175.44101  -23.897788  52.129159  92.771482  57.729502  -5.142326  20.24354  20.77259  9.091444  9.156163  -99.578163  68.799445  -172.484034  -23.809724  11.140875  -114.797935  78.450556  15.008095  14.758979  -20.198671  6.763912  9.731461  -15.243905  4.759102  7.524377  
0.0  89.887642  0.0  1.192941  36.487198  -92.259767  -8.265139  -9.607335  -9.402184  -16.680709  8.35687  26.693441  1.08046  1.060735  2.010402  -23.020514  13.277578  5.610618  -15.072145  6.330919  11.465082  2.853673  1.184546  0.521323  1.42364  -0.818906  -0.485732  3.908993  -2.208805  -1.37585  3.908992  -2.208805  -1.37585  25.252647  11.064811  22.714613  147.875317  8.679174  175.450197  -23.969432  52.047221  92.766889  57.756047  -4.975531  19.932375  20.668226  9.163603  8.994944  -100.178588  68.873836  -172.860115  -23.686273  11.075207  -114.730925  78.47416  15.018047  14.840284  -20.219314  6.715767  9.525319  -15.256385  4.729381  7.368506  
0.0  89.887642  0.0  1.085848  36.371545  -92.299681  -8.213  -9.654992  -9.430825  -16.706106  8.339319  26.716033  1.083934  1.054082  2.053726  -23.01666  13.305919  5.371113  -14.864295  6.292062  11.873554  2.964713  1.245531  0.570599  1.394815  -0.831043  -0.45533  3.82944  -2.244345  -1.292514  3.82944  -2.244345  -1.292515  25.293913  11.151228  22.598658  147.72923  8.779243  175.45323  -24.012547  51.925645  92.76895  57.822759  -4.90269  19.603026  20.665926  9.249075  8.827079  -100.346888  69.015058  -172.953421  -23.636065  11.000104  -114.679523  78.475911  15.010869  14.863733  -20.101462  6.654862  9.350509  -15.165359  4.691101  7.234084  
0.0  89.887642  0.0  1.030262  36.431281  -92.238512  -8.153656  -9.730255  -9.498681  -16.602297  8.30375  26.810317  1.050976  1.032928  2.053544  -23.390901  13.364891  4.932056  -14.767946  6.219762  12.282999  3.221153  1.359363  0.649204  1.361176  -0.824088  -0.43876  3.736756  -2.226957  -1.245692  3.736756  -2.226957  -1.245691  25.18172  11.131527  22.468624  147.651646  8.969067  175.522589  -24.013058  51.846335  92.767762  57.941204  -4.719638  19.291821  20.608712  9.151641  8.717097  -100.931145  69.119664  -173.260674  -23.544009  11.001835  -114.59808  78.530603  15.05699  15.034039  -20.080237  6.554744  9.193888  -15.14659  4.621306  7.11325  
0.0  89.887642  0.0  0.967944  36.264007  -92.31142  -7.924696  -9.826508  -9.456762  -16.616007  8.353893  26.755175  1.024492  1.02337  2.071796  -23.313647  13.463888  4.702517  -14.374616  6.140298  12.751913  3.283694  1.430383  0.70777  1.353616  -0.821051  -0.405489  3.714915  -2.22068  -1.154324  3.714915  -2.22068  -1.154324  25.113114  11.121397  22.367868  147.482919  9.111098  175.573442  -23.98759  51.666943  92.84522  58.172739  -4.545566  19.065032  20.431581  9.136807  8.613744  -100.868879  69.270366  -173.139163  -23.548978  10.994336  -114.558634  78.51146  15.048833  15.083127  -20.003924  6.432742  9.049846  -15.086514  4.535438  7.000538  
0.0  89.887642  0.0  0.970877  36.211951  -92.338758  -7.648939  -9.956079  -9.391688  -16.548237  8.430458  26.732154  0.94495  0.993664  2.048621  -23.327831  13.538942  4.386967  -14.15005  6.1379  13.249294  3.386306  1.52356  0.762191  1.355532  -0.800077  -0.36733  3.718496  -2.165491  -1.048889  3.718497  -2.165491  -1.048889  24.854742  11.01065  22.178631  147.314861  9.34152  175.703316  -23.951621  51.494205  92.878343  58.575135  -4.30891  18.920686  20.272599  8.914241  8.580884  -101.532834  69.348511  -173.420543  -23.53146  10.993262  -114.514555  78.530395  15.021389  15.143136  -20.127027  6.294203  8.871073  -15.175373  4.435451  6.863524  
0.0  89.887642  0.0  0.945089  35.926059  -92.47219  -7.210066  -10.100987  -9.247811  -16.510885  8.533443  26.622487  0.842201  0.973163  2.050086  -22.950943  13.645878  4.186649  -13.839883  6.09052  13.80031  3.458936  1.596615  0.811738  1.363846  -0.785018  -0.316278  3.739324  -2.127103  -0.908758  3.739324  -2.127103  -0.908758  24.736098  10.944201  21.995161  147.152827  9.573885  175.764246  -23.770073  51.191882  93.092446  59.274839  -4.023034  18.827825  20.013514  8.846565  8.467583  -101.364148  69.530653  -173.19787  -23.554046  11.003072  -114.465737  78.535067  15.008484  15.206419  -20.064304  6.116204  8.726723  -15.12504  4.307315  6.748985  
0.0  89.887642  0.0  0.961954  35.7252  -92.52855  -6.576108  -10.292713  -9.094442  -16.750537  8.708479  26.35778  0.821242  0.969297  2.080702  -22.510166  13.668179  4.043854  -13.48286  6.114813  14.290685  3.331817  1.6118  0.842834  1.378464  -0.755068  -0.276562  3.777587  -2.047335  -0.798947  3.777586  -2.047334  -0.798947  24.514994  10.737227  21.756579  146.967404  9.834001  175.854955  -23.526373  50.801699  93.346975  60.122641  -3.702404  18.813548  19.813658  8.558575  8.480541  -101.907179  69.653603  -173.405456  -23.562772  11.059685  -114.394493  78.590019  15.097705  15.387405  -20.14602  5.942982  8.588379  -15.183132  4.180591  6.640656  
0.0  89.887642  0.0  0.961503  35.330793  -92.649113  -5.967306  -10.422862  -8.950909  -16.799884  8.806156  26.228994  0.74053  0.967546  2.075564  -21.704092  13.679328  3.986281  -13.442572  6.121522  14.751352  3.398603  1.654548  0.881502  1.407944  -0.742006  -0.232676  3.856676  -2.013841  -0.67914  3.856676  -2.013841  -0.679141  24.301412  10.696105  21.56437  146.841796  10.142068  175.905241  -23.248374  50.189112  93.761626  61.197966  -3.261258  18.85361  19.383377  8.485837  8.434117  -101.682175  69.890481  -173.190726  -23.549773  11.07087  -114.296117  78.548688  15.056058  15.325033  -20.116601  5.798535  8.465937  -15.158426  4.076484  6.543945  
0.0  89.887642  0.0  1.011048  35.062951  -92.692465  -5.598113  -10.353924  -8.897639  -17.075297  8.883523  26.02879  0.829095  0.981167  2.121052  -20.686887  13.676203  4.029099  -13.259046  6.103236  15.208676  2.9645  1.615397  0.860815  1.415782  -0.720737  -0.203549  3.87698  -1.957352  -0.598516  3.87698  -1.957352  -0.598516  24.181907  10.532798  21.360129  146.648182  10.466462  175.999259  -22.865814  49.430812  94.239548  62.408585  -2.790044  18.93704  19.19644  8.239274  8.542956  -102.114012  70.117851  -173.34342  -23.453244  11.047967  -114.144398  78.497123  15.014926  15.258765  -20.111067  5.703939  8.372536  -15.152428  4.008553  6.470838  
0.0  89.887642  0.0  1.014062  34.612485  -92.771331  -4.953432  -10.398233  -8.761745  -17.227669  8.897415  25.883747  0.830297  0.974985  2.113682  -19.863789  13.62788  3.974866  -13.122531  6.127032  15.565591  3.016818  1.682647  0.874037  1.42531  -0.709246  -0.18511  3.902365  -1.926955  -0.547718  3.902365  -1.926955  -0.547718  24.050523  10.474778  21.223451  146.614985  10.85446  176.100669  -22.582973  48.335385  94.750196  63.448189  -2.224406  19.089281  18.842809  8.110245  8.574142  -102.070073  70.561674  -173.3243  -23.294224  10.953391  -113.923625  78.445206  14.930201  15.183993  -19.978876  5.619156  8.327123  -15.052089  3.948088  6.432766  
0.0  89.887642  0.0  1.037011  34.2456  -92.803446  -4.749625  -10.226351  -8.745131  -17.122385  8.812706  25.90222  0.877409  0.930804  2.10652  -19.051283  13.577595  3.980792  -13.326128  6.296178  15.74183  3.509678  1.791093  0.91923  1.428285  -0.707727  -0.185437  3.910493  -1.922761  -0.548609  3.910493  -1.922761  -0.54861  23.852078  10.397932  21.15705  146.606878  11.293968  176.281358  -22.164049  47.180972  95.316944  64.538022  -1.663883  19.153383  18.720667  7.870227  8.834055  -102.760128  71.028197  -173.704748  -23.092303  10.85863  -113.637804  78.440816  14.841218  15.270552  -19.862598  5.62704  8.336547  -14.965102  3.955236  6.438912  
0.0  89.887642  0.0  1.041135  33.697273  -92.870572  -4.1773  -10.225603  -8.565577  -17.057319  8.703212  25.778973  0.841591  0.915407  2.105183  -18.470658  13.467551  3.915928  -12.449234  6.46255  15.93024  3.787503  1.843684  0.939031  1.559481  -0.647598  -0.198616  4.268898  -1.756479  -0.584518  4.268899  -1.756478  -0.584518  22.910485  9.980733  20.937799  146.63166  11.758043  176.435306  -21.700136  45.881826  95.904838  65.644427  -1.105352  19.221634  17.555604  7.399491  8.846778  -102.937181  71.761451  -173.896022  -22.890315  10.697542  -113.316803  78.414287  14.682571  15.151895  -20.10991  5.392753  8.476281  -15.149602  3.771398  6.538888  
0.0  89.887642  0.0  1.062377  33.121958  -92.921963  -4.014409  -10.015347  -8.477247  -16.790019  8.443937  25.764519  0.949343  0.923247  2.16202  -17.652351  13.252833  3.981635  -11.339282  6.624165  15.951999  3.928526  1.793769  0.993261  1.742538  -0.544852  -0.206972  4.768406  -1.473487  -0.60474  4.768406  -1.473487  -0.60474  21.606752  9.288261  20.504665  146.633505  12.234801  176.638166  -21.238781  44.530282  96.461687  66.842737  -0.537846  19.376668  16.345135  6.559564  8.877843  -103.622628  72.480427  -174.229787  -22.560398  10.448232  -112.938668  78.462249  14.536217  14.863169  -20.475859  5.023719  8.706101  -15.422366  3.481574  6.703078  
